<svg width="41" height="40" viewBox="0 0 41 40" fill="none" xmlns="http://www.w3.org/2000/svg">
<path d="M20.5 12.8125C19.0784 12.8125 17.6888 13.234 16.5068 14.0238C15.3249 14.8136 14.4036 15.9361 13.8596 17.2495C13.3156 18.5628 13.1733 20.008 13.4506 21.4022C13.7279 22.7964 14.4125 24.0771 15.4177 25.0823C16.4229 26.0875 17.7036 26.7721 19.0978 27.0494C20.492 27.3267 21.9372 27.1844 23.2505 26.6404C24.5639 26.0964 25.6864 25.1751 26.4762 23.9932C27.266 22.8112 27.6875 21.4216 27.6875 20C27.6875 18.0938 26.9302 16.2656 25.5823 14.9177C24.2344 13.5698 22.4062 12.8125 20.5 12.8125ZM20.5 25.3125C19.4493 25.3125 18.4222 25.0009 17.5485 24.4172C16.6749 23.8334 15.994 23.0037 15.5919 22.033C15.1898 21.0623 15.0846 19.9941 15.2896 18.9636C15.4946 17.9331 16.0005 16.9865 16.7435 16.2435C17.4865 15.5005 18.4331 14.9946 19.4636 14.7896C20.4941 14.5846 21.5623 14.6898 22.533 15.0919C23.5037 15.494 24.3334 16.1749 24.9172 17.0485C25.5009 17.9222 25.8125 18.9493 25.8125 20C25.8084 21.4077 25.2473 22.7566 24.2519 23.7519C23.2566 24.7473 21.9077 25.3084 20.5 25.3125ZM27.375 4.6875H13.625C11.3872 4.6875 9.24113 5.57645 7.65879 7.15879C6.07645 8.74113 5.1875 10.8872 5.1875 13.125V26.875C5.1875 29.1128 6.07645 31.2589 7.65879 32.8412C9.24113 34.4236 11.3872 35.3125 13.625 35.3125H27.375C29.6128 35.3125 31.7589 34.4236 33.3412 32.8412C34.9236 31.2589 35.8125 29.1128 35.8125 26.875V13.125C35.8125 10.8872 34.9236 8.74113 33.3412 7.15879C31.7589 5.57645 29.6128 4.6875 27.375 4.6875ZM33.9375 26.875C33.9375 28.6155 33.2461 30.2847 32.0154 31.5154C30.7847 32.7461 29.1155 33.4375 27.375 33.4375H13.625C11.8845 33.4375 10.2153 32.7461 8.98461 31.5154C7.7539 30.2847 7.0625 28.6155 7.0625 26.875V13.125C7.0625 11.3845 7.7539 9.71532 8.98461 8.48461C10.2153 7.2539 11.8845 6.5625 13.625 6.5625H27.375C29.1155 6.5625 30.7847 7.2539 32.0154 8.48461C33.2461 9.71532 33.9375 11.3845 33.9375 13.125V26.875ZM30.1875 11.875C30.1875 12.184 30.0959 12.4861 29.9242 12.7431C29.7525 13 29.5085 13.2003 29.2229 13.3186C28.9374 13.4368 28.6233 13.4678 28.3202 13.4075C28.0171 13.3472 27.7387 13.1984 27.5201 12.9799C27.3016 12.7613 27.1528 12.4829 27.0925 12.1798C27.0322 11.8767 27.0632 11.5626 27.1814 11.2771C27.2997 10.9915 27.5 10.7475 27.7569 10.5758C28.0139 10.4041 28.316 10.3125 28.625 10.3125C29.0394 10.3125 29.4368 10.4771 29.7299 10.7701C30.0229 11.0632 30.1875 11.4606 30.1875 11.875Z" fill="#66FFFF"/>
</svg>
