<svg width="41" height="40" viewBox="0 0 41 40" fill="none" xmlns="http://www.w3.org/2000/svg">
<path d="M36.4363 5.20389C36.1343 4.94229 35.7669 4.76774 35.3733 4.69893C34.9797 4.63012 34.5748 4.66964 34.2019 4.81326L5.3582 16.1414C4.91563 16.3128 4.54084 16.6236 4.29036 17.0267C4.03989 17.4299 3.92733 17.9035 3.96966 18.3763C4.01199 18.849 4.20693 19.2951 4.52504 19.6474C4.84316 19.9996 5.26721 20.2388 5.7332 20.3289L13.3113 21.8445V31.2508C13.3118 31.6817 13.4396 32.103 13.6787 32.4616C13.9178 32.8202 14.2574 33.1002 14.6551 33.2664C14.9232 33.3756 15.2093 33.4339 15.4988 33.4383C15.7864 33.44 16.0713 33.3842 16.337 33.2742C16.6026 33.1642 16.8436 33.0022 17.0457 32.7976L21.3113 28.532L27.6863 34.1414C28.0812 34.4955 28.5935 34.6903 29.1238 34.6883C29.3524 34.6902 29.5796 34.6532 29.7957 34.5789C30.1565 34.4642 30.4808 34.2565 30.7358 33.9767C30.9909 33.697 31.1678 33.355 31.2488 32.9851L37.1394 7.34451C37.2275 6.95749 37.2085 6.5538 37.0847 6.17671C36.9608 5.79962 36.7367 5.46334 36.4363 5.20389ZM5.8582 18.2039C5.84727 18.138 5.86014 18.0704 5.89449 18.0132C5.92884 17.9559 5.98244 17.9127 6.0457 17.8914L30.1863 8.40701L14.0301 20.0789L6.1082 18.4851C6.03915 18.4774 5.97539 18.4444 5.92923 18.3925C5.88307 18.3405 5.85777 18.2734 5.8582 18.2039ZM15.7176 31.4695C15.6742 31.5149 15.6176 31.5455 15.5559 31.5567C15.4941 31.5679 15.4304 31.5593 15.3738 31.532C15.3189 31.5081 15.272 31.4688 15.2388 31.4189C15.2055 31.3691 15.1873 31.3107 15.1863 31.2508V23.1414L19.8894 27.2976L15.7176 31.4695ZM29.4363 32.5633C29.4256 32.6175 29.4008 32.6679 29.3643 32.7093C29.3278 32.7508 29.2809 32.7818 29.2285 32.7993C29.1761 32.8168 29.12 32.82 29.066 32.8088C29.0119 32.7975 28.9618 32.7721 28.9207 32.7351L15.7488 21.1414L35.2801 7.04764L29.4363 32.5633Z" fill="#66FFFF"/>
</svg>
