<svg width="41" height="40" viewBox="0 0 41 40" fill="none" xmlns="http://www.w3.org/2000/svg">
<path d="M20.5013 4.0625C17.7222 4.06295 14.9915 4.79011 12.5802 6.17181C10.1689 7.55351 8.16082 9.54173 6.7552 11.9392C5.34959 14.3366 4.59531 17.0599 4.56722 19.8389C4.53913 22.6179 5.2382 25.3559 6.59506 27.7812L5.22006 32.5781C5.10778 32.9536 5.09916 33.3524 5.19512 33.7323C5.29108 34.1122 5.48803 34.4591 5.76512 34.7362C6.0422 35.0133 6.38909 35.2102 6.76902 35.3062C7.14895 35.4021 7.54776 35.3935 7.92318 35.2812L12.7201 33.9062C14.8455 35.0963 17.2155 35.7832 19.6479 35.9144C22.0803 36.0455 24.5104 35.6174 26.7515 34.6628C28.9926 33.7082 30.985 32.2526 32.5758 30.4078C34.1666 28.563 35.3133 26.3781 35.9279 24.021C36.5424 21.6639 36.6085 19.1972 36.1211 16.8106C35.6336 14.4239 34.6055 12.1808 33.1158 10.2534C31.6261 8.32612 29.7145 6.76591 27.5277 5.69269C25.3409 4.61947 22.9372 4.06179 20.5013 4.0625ZM20.5013 34.0625C17.9773 34.0618 15.5001 33.3817 13.3294 32.0938C13.1802 32.0141 13.0142 31.9713 12.8451 31.9688C12.7605 31.9637 12.6758 31.9743 12.5951 32L7.40756 33.4844C7.35326 33.5011 7.29544 33.5027 7.2403 33.489C7.18516 33.4753 7.1348 33.4469 7.09462 33.4067C7.05445 33.3665 7.02599 33.3161 7.0123 33.261C6.99861 33.2059 7.00022 33.148 7.01693 33.0938L8.50131 27.9062C8.53635 27.7839 8.54611 27.6557 8.52999 27.5294C8.51388 27.4032 8.47222 27.2815 8.40756 27.1719C6.82517 24.503 6.16987 21.3857 6.54371 18.3056C6.91756 15.2255 8.29957 12.3555 10.4745 10.1427C12.6494 7.92982 15.4951 6.49839 18.5682 6.07134C21.6414 5.64429 24.7696 6.2456 27.4654 7.7816C30.1612 9.3176 32.2734 11.7021 33.4729 14.5635C34.6724 17.425 34.8919 20.6029 34.0971 23.6021C33.3024 26.6013 31.538 29.2534 29.0789 31.1454C26.6198 33.0374 23.604 34.063 20.5013 34.0625ZM28.5482 22.625L25.3451 20.7969C25.0079 20.6067 24.6263 20.5094 24.2393 20.5149C23.8522 20.5204 23.4736 20.6285 23.1419 20.8281L21.1419 22.0313C20.0052 21.4264 19.0749 20.4961 18.4701 19.3594L19.6732 17.3594C19.8729 17.0278 19.981 16.6491 19.9864 16.262C19.9919 15.875 19.8946 15.4934 19.7044 15.1563L17.8763 11.9531C17.6988 11.6457 17.4438 11.3901 17.1368 11.2119C16.8297 11.0337 16.4813 10.9391 16.1263 10.9375C14.72 10.9375 13.3712 11.4951 12.3753 12.488C11.3795 13.4809 10.8179 14.8281 10.8138 16.2344C10.8118 18.0003 11.1578 19.7494 11.8322 21.3815C12.5066 23.0136 13.496 24.4968 14.744 25.7462C15.992 26.9957 17.4741 27.9869 19.1054 28.6631C20.7367 29.3394 22.4854 29.6875 24.2513 29.6875H24.2669C25.6732 29.6834 27.0204 29.1218 28.0133 28.126C29.0063 27.1302 29.5638 25.7813 29.5638 24.375C29.5622 24.02 29.4676 23.6716 29.2894 23.3645C29.1112 23.0575 28.8556 22.8025 28.5482 22.625ZM24.2669 27.8125H24.2513C21.1833 27.8084 18.2424 26.5867 16.0744 24.4158C13.9065 22.245 12.6888 19.3024 12.6888 16.2344C12.6929 15.3254 13.0569 14.4551 13.7011 13.8138C14.3453 13.1725 15.2173 12.8125 16.1263 12.8125C16.1745 12.8164 16.2193 12.8388 16.2513 12.875L18.0794 16.0781C18.1045 16.127 18.1163 16.1816 18.1135 16.2365C18.1108 16.2913 18.0936 16.3445 18.0638 16.3906L16.6107 18.8438C16.5284 18.97 16.4795 19.1151 16.4686 19.2654C16.4577 19.4157 16.485 19.5663 16.5482 19.7031C17.4024 21.5884 18.9129 23.0989 20.7982 23.9531C20.935 24.0163 21.0856 24.0436 21.2359 24.0327C21.3862 24.0218 21.5313 23.9729 21.6576 23.8906L24.1107 22.4375C24.1568 22.4077 24.21 22.3905 24.2648 22.3878C24.3197 22.385 24.3743 22.3968 24.4232 22.4219L27.6263 24.25C27.6625 24.2821 27.6849 24.3268 27.6888 24.375C27.6888 25.284 27.3288 26.156 26.6875 26.8002C26.0462 27.4444 25.1759 27.8084 24.2669 27.8125Z" fill="#66FFFF"/>
</svg>
